<svg width="145" height="118" viewBox="0 0 145 118" fill="none" xmlns="http://www.w3.org/2000/svg">
                        <path d="M1.61382 31.9454H10.2442V42.9442H12.4194L18.8045 36.5691V21.5071H13.8227V13.2405H15.4365H18.8045V10.7185H5.33261V0H6.94643H53.9576V10.7185H41.2576V12.9603H46.2394V21.297H41.2576V23.1885L57.9571 32.5059H73.5339L80.9715 43.0142H111.774V36.4991H113.388H121.457V45.9566H129.667V70.1959H121.457V80.0037H111.774V75.0998L107.985 76.9212V80.8444H111.073V101.511H144.331V117.764H142.718H0.35083V101.511H15.2962V94.5753H18.8045V78.1823L12.7702 70.2659H10.2442V85.468H0V31.9454H1.61382ZM41.2576 16.1829V18.0043H43.0117V16.1829H41.2576ZM10.2442 46.2368V67.0434H14.3139L18.8045 72.858V41.1928L13.7525 46.2368H13.121H10.2442ZM53.6769 43.7148V71.8072H50.4493V43.7148H53.6769ZM47.8532 35.3782V80.4941H44.5554V35.3782H47.8532ZM41.2576 90.7222L55.9223 81.7551V67.1835V63.9609V46.7272V41.6131V35.0979L41.2576 26.9014V90.7222ZM58.0272 84.2771L41.2576 94.5052V94.5753H44.5554V101.511H88.3389V94.225H100.267V82.6658L98.092 74.5394H76.551V84.2771H58.0272ZM59.1499 41.6131V46.7272H65.3245V41.6131H59.1499ZM71.8499 35.7985H59.1499V38.3906H68.6223V46.7272H70.8676V63.9609H76.551V71.3168H100.548L103.144 80.8444H104.758V74.9597L111.774 71.527V46.2368H79.2875L71.8499 35.7985ZM18.8045 16.4631H17.0503V18.2846H18.8045V16.4631ZM31.0133 94.5753V85.9584H29.0487V94.5753H31.0133ZM32.6272 97.7979H25.8211H18.8045H18.5238V101.511H41.3277V97.7979H41.2576H34.241H32.6272ZM25.8211 94.5753V82.7359H34.241V94.5753H38.0299V21.367V21.297V12.9603V10.7185H22.0321V13.2405V21.5071V33.3466V82.3856V94.5753H25.8211ZM26.4526 50.7204H35.5741V61.509H24.8387V50.7204H26.4526ZM32.3465 54.013H28.1365V58.2864H32.3465V54.013ZM107.845 101.511V84.137H103.495V94.225V101.511H107.845ZM100.267 101.511V97.4476H91.5666V101.511H100.267ZM126.439 49.1792H121.457V66.9733H126.439V49.1792ZM118.23 39.7216H115.002V43.0142V73.4885V76.7811H118.23V70.1959V45.9566V39.7216ZM67.64 49.9498H65.3245H59.1499V63.9609H67.64V49.9498ZM73.3234 67.1835H70.8676H67.64H59.1499V81.0545H73.3234V74.5394V67.1835ZM3.64863 114.471H141.104V104.803H111.073H103.495H101.881H100.267H88.3389H44.5554H15.2962H3.64863V114.471ZM50.73 3.22257H8.56025V7.49597H18.8045H20.4183H41.2576H50.73V3.22257ZM6.94643 35.168H3.22763V82.1754H6.94643V70.2659V42.9442V35.168Z" fill="white"></path>
                    </svg>